<svg width="34" height="34" viewBox="0 0 34 34" fill="none" xmlns="http://www.w3.org/2000/svg">
<path d="M21.8593 8.66699H19.3753C18.2774 8.66699 17.2245 9.10588 16.448 9.88712C15.6716 10.6684 15.2352 11.728 15.235 12.833V15.333H12.751V18.667H15.235V25.333H18.5477V18.667H21.0317L21.8593 15.333H18.5477V12.833C18.5477 12.7236 18.5691 12.6153 18.6107 12.5142C18.6523 12.4132 18.7132 12.3213 18.7901 12.244C18.8669 12.1666 18.9582 12.1053 19.0586 12.0634C19.159 12.0215 19.2666 12 19.3753 12H21.8593V8.66699Z" stroke="white" stroke-width="1.667" stroke-linecap="round" stroke-linejoin="round"/>
<path d="M32.2825 17C32.2825 25.5695 25.3826 32.5 16.8913 32.5C8.39996 32.5 1.5 25.5695 1.5 17C1.5 8.4305 8.39996 1.5 16.8913 1.5C25.3826 1.5 32.2825 8.4305 32.2825 17Z" stroke="white" stroke-width="3"/>
</svg>
