<svg width="35" height="34" viewBox="0 0 35 34" fill="none" xmlns="http://www.w3.org/2000/svg">
<path d="M21.2297 13.667C22.5473 13.667 23.811 14.1938 24.7427 15.1315C25.6743 16.0691 26.1978 17.3409 26.1978 18.667V24.5H22.8861V18.667C22.8915 18.4447 22.8527 18.2236 22.7719 18.0166C22.6911 17.8097 22.57 17.6211 22.4157 17.4619C22.2614 17.3028 22.077 17.1763 21.8734 17.09C21.6699 17.0036 21.4512 16.9592 21.2302 16.9592C21.0093 16.9592 20.7906 17.0036 20.587 17.09C20.3834 17.1763 20.1991 17.3028 20.0448 17.4619C19.8905 17.6211 19.7694 17.8097 19.6886 18.0166C19.6078 18.2236 19.569 18.4447 19.5744 18.667V24.5H16.2617V18.667C16.2617 17.3409 16.7851 16.0691 17.7168 15.1315C18.6485 14.1938 19.9121 13.667 21.2297 13.667V13.667Z" stroke="white" stroke-width="1.667" stroke-linecap="round" stroke-linejoin="round"/>
<path d="M12.9504 14.5H9.63867V24.5H12.9504V14.5Z" stroke="white" stroke-width="1.667" stroke-linecap="round" stroke-linejoin="round"/>
<path d="M11.295 12.001C12.2098 12.001 12.9513 11.2547 12.9513 10.334C12.9513 9.41333 12.2098 8.66699 11.295 8.66699C10.3802 8.66699 9.63867 9.41333 9.63867 10.334C9.63867 11.2547 10.3802 12.001 11.295 12.001Z" stroke="white" stroke-width="1.667" stroke-linecap="round" stroke-linejoin="round"/>
<path d="M33.2698 17C33.2698 25.5695 26.3699 32.5 17.8786 32.5C9.38727 32.5 2.4873 25.5695 2.4873 17C2.4873 8.4305 9.38727 1.5 17.8786 1.5C26.3699 1.5 33.2698 8.4305 33.2698 17Z" stroke="white" stroke-width="3"/>
</svg>
