<svg width="34" height="34" viewBox="0 0 34 34" fill="none" xmlns="http://www.w3.org/2000/svg">
<path d="M26.9931 10.5002C26.2 11.0629 25.322 11.4934 24.3928 11.7752C23.8942 11.1979 23.2315 10.7887 22.4943 10.603C21.757 10.4172 20.9809 10.4639 20.2709 10.7366C19.5609 11.0094 18.9512 11.495 18.5244 12.1279C18.0977 12.7608 17.8744 13.5104 17.8847 14.2752V15.1082C16.4296 15.1461 14.9878 14.8213 13.6876 14.1626C12.3875 13.504 11.2693 12.532 10.4327 11.3332C10.4327 11.3332 7.12102 18.8332 14.573 22.1672C12.8675 23.332 10.8359 23.9159 8.77637 23.8332C16.2284 28.0002 25.3368 23.8332 25.3368 14.2502C25.336 14.0179 25.3137 13.7862 25.2702 13.5582C26.1157 12.7198 26.7123 11.6608 26.9931 10.5002V10.5002Z" stroke="white" stroke-width="1.667" stroke-linecap="round" stroke-linejoin="round"/>
<path d="M32.2825 17C32.2825 25.5695 25.3826 32.5 16.8913 32.5C8.39996 32.5 1.5 25.5695 1.5 17C1.5 8.4305 8.39996 1.5 16.8913 1.5C25.3826 1.5 32.2825 8.4305 32.2825 17Z" stroke="white" stroke-width="3"/>
</svg>
