<svg width="35" height="34" viewBox="0 0 35 34" fill="none" xmlns="http://www.w3.org/2000/svg">
<g clip-path="url(#clip0)">
<path d="M9.00586 25.8556C9.24689 25.1278 9.47394 24.4458 9.70099 23.7638C9.92805 23.0888 10.1306 22.4032 10.3891 21.7388C10.5219 21.4013 10.48 21.1481 10.3123 20.8317C9.39709 19.1231 9.12463 17.2915 9.4425 15.386C9.71147 13.7724 10.3926 12.345 11.493 11.1321C13.3059 9.13877 15.5695 8.18252 18.2452 8.29502C20.2049 8.37588 21.9374 9.09658 23.415 10.4009C24.7913 11.6138 25.6891 13.122 26.1048 14.9149C26.4401 16.3599 26.4017 17.7978 25.9895 19.2216C25.4655 21.0251 24.463 22.5122 22.9714 23.6442C20.9 25.2192 18.5771 25.7079 16.0445 25.2122C15.283 25.0646 14.5565 24.7903 13.8718 24.4177C13.76 24.3579 13.6657 24.3438 13.5434 24.386C12.244 24.8079 10.9411 25.2263 9.64161 25.6446C9.44599 25.7079 9.24689 25.7747 9.00586 25.8556ZM11.217 23.6513C11.2869 23.6337 11.3183 23.6267 11.3498 23.6161C12.1637 23.356 12.9776 23.0923 13.7949 22.8392C13.8718 22.8146 13.9766 22.8356 14.0499 22.8708C14.4028 23.0466 14.7416 23.2575 15.1049 23.4122C16.5999 24.0485 18.1404 24.1505 19.6983 23.7146C21.5567 23.1907 22.9819 22.0763 23.9565 20.3923C24.7913 18.9509 25.0778 17.3935 24.8193 15.7552C24.4909 13.6704 23.429 12.0321 21.672 10.8685C20.149 9.86299 18.4723 9.52197 16.6838 9.80674C15.1433 10.0528 13.8264 10.7595 12.74 11.8915C11.8074 12.8618 11.1821 14.0079 10.9096 15.3263C10.5219 17.2142 10.8083 19.0001 11.8493 20.6278C12.0589 20.9548 12.0519 21.2044 11.9261 21.5384C11.6711 22.2239 11.458 22.9235 11.217 23.6513Z" fill="white"/>
<path d="M22.228 19.3128C22.2175 19.9913 21.8996 20.5081 21.2569 20.8316C20.6246 21.148 19.9819 21.2288 19.3217 20.9687C18.7278 20.7331 18.127 20.5046 17.5541 20.2198C16.7996 19.8437 16.1813 19.2812 15.6155 18.6589C14.9902 17.9698 14.4592 17.2034 14.0226 16.3843C13.7117 15.8042 13.5231 15.189 13.5894 14.514C13.6593 13.7968 13.9911 13.2238 14.55 12.7913C14.6618 12.707 14.8295 12.6683 14.9727 12.6542C15.1579 12.6402 15.343 12.6683 15.5281 12.6823C15.6818 12.6964 15.7657 12.8054 15.8181 12.932C15.9543 13.2695 16.0765 13.607 16.2058 13.948C16.2931 14.1765 16.3595 14.4156 16.4643 14.637C16.5935 14.9113 16.5132 15.1398 16.3455 15.3507C16.2023 15.53 16.0521 15.7023 15.8879 15.857C15.7517 15.987 15.7272 16.1206 15.8181 16.2788C16.2198 16.9995 16.7088 17.6464 17.355 18.1702C17.7812 18.5148 18.2528 18.7714 18.7418 19.0105C18.885 19.0808 19.0248 19.0702 19.1365 18.9402C19.3776 18.6624 19.6221 18.3882 19.8596 18.107C20.0133 17.9277 20.0902 17.8925 20.2963 17.998C20.8936 18.3003 21.4839 18.6132 22.0778 18.9261C22.2175 19.0034 22.2524 19.13 22.228 19.3128Z" fill="white"/>
</g>
<path d="M32.9622 17C32.9622 25.5695 26.0622 32.5 17.5709 32.5C9.07965 32.5 2.17969 25.5695 2.17969 17C2.17969 8.4305 9.07965 1.5 17.5709 1.5C26.0622 1.5 32.9622 8.4305 32.9622 17Z" stroke="white" stroke-width="3"/>
<defs>
<clipPath id="clip0">
<rect width="17.8849" height="18" fill="white" transform="translate(8.62891 8)"/>
</clipPath>
</defs>
</svg>
